<svg xmlns="http://www.w3.org/2000/svg" width="1024" height="1024" viewBox="0 0 1024 1024">
<g>
<path d="M 656.25 765.99 C648.14,767.11 622.66,768.02 616.50,767.41 C581.73,763.97 562.20,758.88 536.50,746.57 C519.00,738.19 506.37,730.02 492.67,718.22 C470.48,699.11 451.18,669.93 441.03,640.16 C439.28,635.02 437.99,630.69 438.17,630.53 C438.35,630.38 442.72,629.02 447.88,627.51 C465.78,622.29 482.13,614.21 498.31,602.60 C502.61,599.52 506.26,597.00 506.42,597.00 C506.59,597.00 508.14,600.95 509.87,605.78 C513.54,616.05 522.82,633.17 530.84,644.47 C533.95,648.85 541.62,657.59 547.88,663.88 L 559.26 675.33 L 563.62 670.41 C569.32,663.99 573.61,655.30 575.69,646.00 C577.17,639.34 577.42,626.36 577.93,529.91 L 578.50 421.32 L 581.64 416.27 L 584.78 411.23 L 579.06 410.01 C573.50,408.83 573.17,408.89 567.06,411.97 C553.49,418.82 539.75,431.10 529.34,445.68 C514.09,467.03 501.68,503.79 500.27,531.77 L 499.70 543.04 L 495.10 545.10 C488.40,548.10 473.19,553.69 468.16,554.99 C454.79,558.48 435.86,560.20 434.53,558.05 C433.46,556.32 437.10,535.70 440.19,526.03 C455.96,476.62 491.75,436.76 541.87,412.77 C549.77,408.99 555.98,405.65 555.67,405.34 C553.99,403.66 528.04,401.04 512.88,401.02 C489.92,400.99 478.00,403.14 461.50,410.26 C445.65,417.11 434.90,426.55 427.25,440.34 C422.70,448.54 421.69,451.94 425.07,447.63 C428.78,442.92 429.32,444.20 428.73,456.25 C428.14,468.30 426.19,475.59 421.32,483.91 C416.32,492.43 411.03,497.29 384.23,518.00 C381.74,519.92 378.24,522.62 376.47,524.00 C374.69,525.38 369.92,529.05 365.87,532.16 C361.82,535.28 356.75,539.34 354.62,541.20 L 350.73 544.57 L 362.12 550.73 C385.47,563.36 406.10,568.45 433.50,568.37 C462.16,568.29 486.56,562.17 507.37,549.87 C516.31,544.58 524.61,538.51 525.79,536.41 C526.60,534.96 527.11,535.01 530.90,536.95 C535.71,539.40 535.71,539.57 530.73,549.50 C513.63,583.59 475.77,611.34 434.50,620.02 C358.88,635.92 275.46,600.82 237.96,537.34 C220.36,507.54 213.04,473.11 217.37,440.50 C222.65,400.77 239.39,367.55 268.63,338.81 C286.82,320.93 303.12,309.37 327.33,297.19 C336.04,292.81 342.79,288.99 342.32,288.70 C341.86,288.41 335.41,287.40 327.99,286.46 C308.27,283.94 277.85,284.86 262.58,288.42 C237.59,294.26 219.75,307.20 210.04,326.53 C206.95,332.69 205.32,334.95 204.27,334.55 C203.47,334.24 201.67,333.70 200.27,333.35 C197.73,332.71 197.72,332.70 198.31,324.11 C199.25,310.46 204.45,293.12 211.24,281.00 C225.35,255.81 250.23,236.82 279.26,229.07 C296.91,224.36 303.67,223.59 327.50,223.54 C359.34,223.48 372.24,225.21 446.50,239.50 C484.59,246.82 511.53,250.00 535.52,250.00 C555.32,250.00 565.38,248.30 576.59,243.06 C585.96,238.68 591.53,234.01 596.12,226.70 C597.91,223.84 599.49,221.34 599.62,221.15 C599.76,220.96 601.47,221.33 603.43,221.98 C607.59,223.35 607.75,224.34 605.55,234.68 C596.79,275.76 568.82,303.87 528.03,312.59 C514.69,315.44 483.86,315.33 468.75,312.38 L 466.00 311.84 L 466.00 346.53 L 459.00 351.15 C455.15,353.70 451.93,355.72 451.83,355.64 C451.74,355.56 451.41,345.15 451.08,332.50 L 450.50 309.50 L 440.73 307.60 C435.36,306.55 430.78,305.89 430.54,306.13 C430.31,306.36 429.79,323.18 429.40,343.51 L 428.68 380.47 L 424.39 386.36 C419.30,393.37 413.06,407.22 409.69,419.00 C407.10,428.08 404.41,446.01 405.29,448.30 C405.77,449.58 414.87,452.00 419.17,452.00 C422.02,452.00 421.33,450.31 418.00,449.15 C414.29,447.86 414.17,445.87 417.02,431.92 C425.45,390.51 450.96,361.36 491.17,347.17 C503.22,342.92 512.05,341.28 529.91,339.97 C556.88,337.99 579.40,340.49 638.50,352.01 C699.06,363.81 717.92,366.26 749.50,366.40 C778.46,366.53 787.38,364.86 803.51,356.33 C807.42,354.26 816.59,345.37 818.67,341.63 C819.60,339.96 820.11,339.88 823.36,340.95 C827.61,342.36 827.63,342.51 825.05,354.00 C820.99,372.12 813.13,386.60 799.79,400.55 C789.92,410.88 779.37,418.14 766.00,423.80 C747.79,431.50 725.22,433.73 698.00,430.50 C691.12,429.68 684.26,429.01 682.75,429.01 L 680.00 429.00 L 680.00 707.00 L 682.75 707.00 C687.38,706.99 702.55,704.07 711.76,701.40 C736.70,694.18 754.10,684.60 773.67,667.30 L 780.85 660.96 L 784.42 662.66 C786.39,663.60 788.00,664.88 788.00,665.51 C788.00,667.53 779.17,684.85 774.88,691.27 C758.85,715.21 734.57,737.10 710.67,749.17 C694.84,757.16 674.33,763.50 656.25,765.99 ZM 329.53 526.85 C335.38,532.43 340.51,537.00 340.93,537.00 C342.28,537.00 353.65,524.58 355.40,521.19 C356.34,519.37 358.09,514.42 359.29,510.19 C361.44,502.59 361.48,501.38 361.98,404.50 L 362.50 306.50 L 365.41 301.25 C367.01,298.36 368.70,296.00 369.16,296.00 C369.62,296.00 370.00,295.58 370.00,295.07 C370.00,294.56 367.59,293.84 364.65,293.48 C360.22,292.92 358.54,293.19 354.92,295.04 C346.93,299.12 338.52,305.09 329.68,312.98 C325.31,316.88 311.78,334.71 307.28,342.50 C292.33,368.40 285.56,390.66 284.31,418.01 C283.20,442.23 287.15,462.02 297.34,483.32 C305.17,499.67 315.00,512.97 329.53,526.85 ZM 636.00 707.50 C648.07,708.98 655.90,709.24 661.25,708.36 L 665.00 707.74 L 665.00 426.35 L 655.25 424.66 C649.89,423.73 645.16,422.98 644.75,422.98 C644.34,422.99 644.00,463.18 644.00,512.29 C644.00,515.97 644.00,519.50 644.00,522.90 C644.01,595.22 644.01,605.65 640.35,614.58 C639.56,616.51 638.60,618.36 637.43,620.75 C634.41,626.93 632.33,629.41 623.37,637.50 C617.58,642.73 605.15,653.14 595.75,660.64 C586.34,668.15 576.69,676.09 574.29,678.30 L 569.94 682.31 L 574.22 685.21 C580.68,689.59 596.56,697.37 605.00,700.29 C616.28,704.19 624.39,706.07 636.00,707.50 Z" fill="rgb(0,0,0)"/>
</g>
</svg>